<svg width="40" height="40" viewBox="0 0 40 40" fill="none" xmlns="http://www.w3.org/2000/svg">
<path fill-rule="evenodd" clip-rule="evenodd" d="M26.6622 30.0465C23.8295 32.1379 32.638 23.153 30.1314 26.5685C30.1942 26.5635 30.0779 26.7528 29.6882 27.2275C29.6882 27.2275 36.3824 33.8598 39.6685 37.2352C40.8093 38.4657 38.751 40.9218 37.3526 39.6395C34.3768 36.7597 27.3355 29.6026 27.3246 29.591L26.6622 30.0465Z" fill="#0EC8B9"/>
<path d="M16.8258 33.4001C21.133 33.3584 25.3968 31.5789 28.4629 28.5564C32.1044 24.9667 33.9795 19.6558 33.3255 14.5852C32.2048 5.89649 25.0439 0 16.7187 0C10.3933 0 4.2461 3.94684 1.54967 9.66981C-0.514466 14.0513 -0.518648 19.3413 1.54967 23.7303C4.22686 29.4132 10.2737 33.3392 16.6108 33.4001C16.6828 33.4001 16.7547 33.4001 16.8258 33.4001ZM16.6284 30.6162C10.196 30.5545 4.19424 25.5923 3.00076 19.2303C2.15938 14.7454 3.74763 9.89173 7.05627 6.70655C10.9186 2.98662 16.9897 1.74108 22.038 3.84924C26.5543 5.73548 29.9349 10.1153 30.558 14.9406C31.0916 19.0768 29.6037 23.4116 26.6798 26.3974C24.1147 29.017 20.5175 30.5803 16.8082 30.6162C16.748 30.6162 16.6886 30.6162 16.6284 30.6162Z" fill="#0EC8B9"/>
</svg>
