<svg width="40" height="40" viewBox="0 0 40 40" fill="none" xmlns="http://www.w3.org/2000/svg">
<path d="M40 4V10C40 11.0609 39.5786 12.0783 38.8284 12.8284C38.0783 13.5786 37.0609 14 36 14H26C24.9391 14 23.9217 13.5786 23.1716 12.8284C22.4214 12.0783 22 11.0609 22 10V4C22 2.93913 22.4214 1.92172 23.1716 1.17157C23.9217 0.421427 24.9391 0 26 0H36C37.0609 0 38.0783 0.421427 38.8284 1.17157C39.5786 1.92172 40 2.93913 40 4ZM14 26H4C2.93913 26 1.92172 26.4214 1.17157 27.1716C0.421427 27.9217 0 28.9391 0 30V36C0 37.0609 0.421427 38.0783 1.17157 38.8284C1.92172 39.5786 2.93913 40 4 40H14C15.0609 40 16.0783 39.5786 16.8284 38.8284C17.5786 38.0783 18 37.0609 18 36V30C18 28.9391 17.5786 27.9217 16.8284 27.1716C16.0783 26.4214 15.0609 26 14 26Z" fill="#0EC8B9"/>
<path d="M18 4V18C18 19.0609 17.5786 20.0783 16.8284 20.8284C16.0783 21.5786 15.0609 22 14 22H4C2.93913 22 1.92172 21.5786 1.17157 20.8284C0.421427 20.0783 0 19.0609 0 18V4C0 2.93913 0.421427 1.92172 1.17157 1.17157C1.92172 0.421427 2.93913 0 4 0H14C15.0609 0 16.0783 0.421427 16.8284 1.17157C17.5786 1.92172 18 2.93913 18 4ZM36 18H26C24.9391 18 23.9217 18.4214 23.1716 19.1716C22.4214 19.9217 22 20.9391 22 22V36C22 37.0609 22.4214 38.0783 23.1716 38.8284C23.9217 39.5786 24.9391 40 26 40H36C37.0609 40 38.0783 39.5786 38.8284 38.8284C39.5786 38.0783 40 37.0609 40 36V22C40 20.9391 39.5786 19.9217 38.8284 19.1716C38.0783 18.4214 37.0609 18 36 18Z" fill="#2BD3C5"/>
</svg>
