<svg width="40" height="40" viewBox="0 0 40 40" fill="none" xmlns="http://www.w3.org/2000/svg">
<path d="M15.4433 32.8908L6.09592 23.544C6.55874 23.2258 7.02249 22.9486 7.48531 22.7068C8.00023 22.4378 8.51571 22.2087 9.03657 22.0192L16.8741 29.8565C17.1359 28.9966 17.3092 28.0823 17.3988 27.0734L11.6685 21.3423C12.2074 21.2565 12.7547 21.1984 13.3119 21.1637C14.5605 21.0867 15.8555 21.1302 17.1987 21.2395C17.1656 20.932 17.1324 20.6346 17.0976 20.348C17.0131 19.6529 16.9309 18.9211 16.8609 18.1634C16.4013 18.1344 15.9419 18.1111 15.4819 18.0978C13.132 18.0296 10.7599 18.2247 8.40797 19.0158C7.2339 19.4123 6.06647 19.9552 4.92184 20.6757C3.77902 21.3948 2.65581 22.2939 1.55978 23.3899L0 24.9494L2.14986 27.0998L3.70972 25.5397C3.89348 25.3559 4.0759 25.1811 4.25903 25.0138L13.9936 34.7484C14.5508 34.1416 15.0306 33.526 15.4433 32.8908Z" fill="#007E10"/>
<path d="M21.1364 15.3941C21.0761 13.267 21.2579 11.2845 21.8991 9.37781C22.2208 8.4225 22.6574 7.4843 23.25 6.54289C23.8422 5.60211 24.5904 4.66016 25.5406 3.70992L27.1008 2.15039L24.9508 0L23.3901 1.56016C21.9284 3.0218 20.8216 4.53078 20.0141 6.07383C18.7996 8.38977 18.2724 10.7707 18.13 13.1263C17.9858 15.4857 18.2096 17.83 18.4909 20.1813C18.6749 21.7142 18.8236 23.1891 18.8644 24.6059C18.9246 26.733 18.7435 28.7155 18.1017 30.6223C17.7802 31.577 17.3431 32.517 16.7511 33.4572C16.1589 34.3973 15.4101 35.3387 14.4601 36.2889L12.9 37.8497L15.0499 40L16.6103 38.4393C18.0727 36.9777 19.1791 35.4687 19.9873 33.9263C21.2011 31.6104 21.7286 29.2301 21.8708 26.8731C22.0143 24.5144 21.7908 22.1694 21.5099 19.8181C21.3254 18.2852 21.1768 16.8109 21.1364 15.3941Z" fill="#007E10"/>
<path d="M37.85 12.8996L36.2905 14.4591C36.1067 14.6428 35.9255 14.8183 35.7418 14.9857L26.0065 5.25122C25.4496 5.85794 24.9718 6.47169 24.5569 7.10802L33.9057 16.4575C33.4411 16.7725 32.9789 17.0503 32.5148 17.2922C32.0003 17.5624 31.4851 17.7897 30.9635 17.9803L23.126 10.1425C22.8642 11.0024 22.6913 11.9179 22.6013 12.9262L28.3339 18.6585C27.7947 18.7443 27.2461 18.8005 26.6886 18.8359C25.4397 18.9123 24.1453 18.8719 22.7996 18.7614C22.8347 19.0675 22.8678 19.3643 22.9029 19.6509C22.9871 20.3467 23.0696 21.0772 23.14 21.8354C23.6012 21.867 24.0602 21.8897 24.5205 21.9036C26.8692 21.9693 29.2401 21.7736 31.592 20.9831C32.7689 20.5885 33.9344 20.0449 35.0784 19.3239C36.2212 18.6041 37.345 17.705 38.4405 16.6096L40 15.0494L37.85 12.8996Z" fill="#007E10"/>
</svg>
